<mxfile host="65bd71144e">
    <diagram id="kHLe2kgcpFapEwkZKQID" name="PÃ¡gina-1">
        <mxGraphModel dx="872" dy="537" grid="1" gridSize="10" guides="1" tooltips="1" connect="1" arrows="1" fold="1" page="1" pageScale="1" pageWidth="3300" pageHeight="4681" math="0" shadow="0">
            <root>
                <mxCell id="0"/>
                <mxCell id="1" parent="0"/>
                <mxCell id="2" value="INICIO" style="ellipse;whiteSpace=wrap;html=1;fillColor=#e51400;fontColor=#ffffff;strokeColor=#B20000;" vertex="1" parent="1">
                    <mxGeometry x="340" y="70" width="130" height="90" as="geometry"/>
                </mxCell>
                <mxCell id="3" value="" style="endArrow=classic;html=1;exitX=0.5;exitY=1;exitDx=0;exitDy=0;" edge="1" parent="1" source="2" target="4">
                    <mxGeometry width="50" height="50" relative="1" as="geometry">
                        <mxPoint x="420" y="370" as="sourcePoint"/>
                        <mxPoint x="405" y="200" as="targetPoint"/>
                    </mxGeometry>
                </mxCell>
                <mxCell id="4" value="INGRESOS" style="shape=parallelogram;perimeter=parallelogramPerimeter;whiteSpace=wrap;html=1;fixedSize=1;fillColor=#e3c800;fontColor=#000000;strokeColor=#B09500;" vertex="1" parent="1">
                    <mxGeometry x="342.5" y="200" width="125" height="60" as="geometry"/>
                </mxCell>
                <mxCell id="5" value="" style="endArrow=classic;html=1;exitX=0.5;exitY=1;exitDx=0;exitDy=0;" edge="1" parent="1" source="4" target="6">
                    <mxGeometry width="50" height="50" relative="1" as="geometry">
                        <mxPoint x="420" y="370" as="sourcePoint"/>
                        <mxPoint x="405" y="290" as="targetPoint"/>
                    </mxGeometry>
                </mxCell>
                <mxCell id="6" value="INGESOS=&amp;gt;945200" style="rhombus;whiteSpace=wrap;html=1;fillColor=#1ba1e2;fontColor=#ffffff;strokeColor=#006EAF;" vertex="1" parent="1">
                    <mxGeometry x="324.06" y="290" width="161.87" height="160" as="geometry"/>
                </mxCell>
                <mxCell id="7" value="" style="endArrow=classic;html=1;exitX=1;exitY=0.5;exitDx=0;exitDy=0;" edge="1" parent="1" source="6">
                    <mxGeometry width="50" height="50" relative="1" as="geometry">
                        <mxPoint x="420" y="370" as="sourcePoint"/>
                        <mxPoint x="640" y="400" as="targetPoint"/>
                        <Array as="points">
                            <mxPoint x="640" y="370"/>
                        </Array>
                    </mxGeometry>
                </mxCell>
                <mxCell id="9" value="TIENE DEUDAS" style="rhombus;whiteSpace=wrap;html=1;fillColor=#1ba1e2;fontColor=#ffffff;strokeColor=#006EAF;" vertex="1" parent="1">
                    <mxGeometry x="560" y="400" width="161.87" height="160" as="geometry"/>
                </mxCell>
                <mxCell id="10" value="" style="endArrow=classic;html=1;exitX=1;exitY=0.5;exitDx=0;exitDy=0;" edge="1" parent="1" source="9">
                    <mxGeometry width="50" height="50" relative="1" as="geometry">
                        <mxPoint x="420" y="360" as="sourcePoint"/>
                        <mxPoint x="880" y="520" as="targetPoint"/>
                        <Array as="points">
                            <mxPoint x="880" y="480"/>
                        </Array>
                    </mxGeometry>
                </mxCell>
                <mxCell id="11" value="RTA: &quot;RECHAZADO&quot;" style="shape=document;whiteSpace=wrap;html=1;boundedLbl=1;fillColor=#6a00ff;fontColor=#ffffff;strokeColor=#3700CC;" vertex="1" parent="1">
                    <mxGeometry x="820" y="520" width="120" height="80" as="geometry"/>
                </mxCell>
                <mxCell id="12" value="" style="endArrow=classic;html=1;exitX=0;exitY=0.5;exitDx=0;exitDy=0;" edge="1" parent="1" source="9">
                    <mxGeometry width="50" height="50" relative="1" as="geometry">
                        <mxPoint x="710" y="490" as="sourcePoint"/>
                        <mxPoint x="400" y="520" as="targetPoint"/>
                        <Array as="points">
                            <mxPoint x="400" y="480"/>
                        </Array>
                    </mxGeometry>
                </mxCell>
                <mxCell id="13" value="RTA: &quot;APROBADO&quot;" style="shape=document;whiteSpace=wrap;html=1;boundedLbl=1;fillColor=#6a00ff;fontColor=#ffffff;strokeColor=#3700CC;" vertex="1" parent="1">
                    <mxGeometry x="342.5" y="520" width="120" height="80" as="geometry"/>
                </mxCell>
                <mxCell id="14" value="" style="endArrow=classic;html=1;exitX=0;exitY=0.5;exitDx=0;exitDy=0;" edge="1" parent="1" source="6">
                    <mxGeometry width="50" height="50" relative="1" as="geometry">
                        <mxPoint x="520" y="490" as="sourcePoint"/>
                        <mxPoint x="160" y="400" as="targetPoint"/>
                        <Array as="points">
                            <mxPoint x="160" y="370"/>
                        </Array>
                    </mxGeometry>
                </mxCell>
                <mxCell id="15" value="RTA: &quot;RECHAZADO&quot;" style="shape=document;whiteSpace=wrap;html=1;boundedLbl=1;fillColor=#6a00ff;fontColor=#ffffff;strokeColor=#3700CC;" vertex="1" parent="1">
                    <mxGeometry x="100" y="400" width="120" height="80" as="geometry"/>
                </mxCell>
                <mxCell id="16" value="" style="endArrow=none;html=1;exitX=0.482;exitY=0.948;exitDx=0;exitDy=0;exitPerimeter=0;" edge="1" parent="1" source="15">
                    <mxGeometry width="50" height="50" relative="1" as="geometry">
                        <mxPoint x="380" y="620" as="sourcePoint"/>
                        <mxPoint x="640" y="680" as="targetPoint"/>
                        <Array as="points">
                            <mxPoint x="158" y="760"/>
                            <mxPoint x="640" y="760"/>
                        </Array>
                    </mxGeometry>
                </mxCell>
                <mxCell id="17" value="" style="endArrow=none;html=1;" edge="1" parent="1" source="13">
                    <mxGeometry width="50" height="50" relative="1" as="geometry">
                        <mxPoint x="380" y="570" as="sourcePoint"/>
                        <mxPoint x="880" y="600" as="targetPoint"/>
                        <Array as="points">
                            <mxPoint x="403" y="680"/>
                            <mxPoint x="880" y="680"/>
                        </Array>
                    </mxGeometry>
                </mxCell>
                <mxCell id="18" value="" style="endArrow=classic;html=1;entryX=0.5;entryY=0;entryDx=0;entryDy=0;" edge="1" parent="1" target="19">
                    <mxGeometry width="50" height="50" relative="1" as="geometry">
                        <mxPoint x="400" y="760" as="sourcePoint"/>
                        <mxPoint x="400" y="814.7999877929688" as="targetPoint"/>
                    </mxGeometry>
                </mxCell>
                <mxCell id="19" value="INICIO" style="ellipse;whiteSpace=wrap;html=1;fillColor=#e51400;fontColor=#ffffff;strokeColor=#B20000;" vertex="1" parent="1">
                    <mxGeometry x="332.5" y="800" width="130" height="90" as="geometry"/>
                </mxCell>
                <mxCell id="21" value="&lt;span style=&quot;color: rgb(77, 153, 0);&quot;&gt;TRUE&lt;/span&gt;" style="text;html=1;align=center;verticalAlign=middle;resizable=0;points=[];autosize=1;strokeColor=none;fillColor=none;" vertex="1" parent="1">
                    <mxGeometry x="470" y="340" width="60" height="30" as="geometry"/>
                </mxCell>
                <mxCell id="22" value="&lt;span style=&quot;color: rgb(77, 153, 0);&quot;&gt;TRUE&lt;/span&gt;" style="text;html=1;align=center;verticalAlign=middle;resizable=0;points=[];autosize=1;strokeColor=none;fillColor=none;" vertex="1" parent="1">
                    <mxGeometry x="710" y="450" width="60" height="30" as="geometry"/>
                </mxCell>
                <mxCell id="23" value="&lt;font color=&quot;#ff0000&quot;&gt;FALSE&lt;/font&gt;" style="text;html=1;align=center;verticalAlign=middle;resizable=0;points=[];autosize=1;strokeColor=none;fillColor=none;fontColor=#4D9900;" vertex="1" parent="1">
                    <mxGeometry x="272.5" y="340" width="60" height="30" as="geometry"/>
                </mxCell>
                <mxCell id="24" value="&lt;font color=&quot;#ff0000&quot;&gt;FALSE&lt;/font&gt;" style="text;html=1;align=center;verticalAlign=middle;resizable=0;points=[];autosize=1;strokeColor=none;fillColor=none;fontColor=#4D9900;" vertex="1" parent="1">
                    <mxGeometry x="510" y="450" width="60" height="30" as="geometry"/>
                </mxCell>
            </root>
        </mxGraphModel>
    </diagram>
</mxfile>